<svg width="40" height="40" viewBox="0 0 40 40" fill="none" xmlns="http://www.w3.org/2000/svg">
<path d="M27.0667 19.1833L29.6833 16.5666L23.4333 10.3166L20.8167 12.9333L13.9167 6.04998C12.6167 4.74998 10.5 4.74998 9.2 6.04998L6.03333 9.21665C4.73333 10.5167 4.73333 12.6333 6.03333 13.9333L12.9167 20.8166L5 28.75V35H11.25L19.1833 27.0667L26.0667 33.95C27.65 35.5333 29.7833 34.95 30.7833 33.95L33.95 30.7833C35.25 29.4833 35.25 27.3667 33.95 26.0667L27.0667 19.1833ZM15.3 18.45L8.4 11.5666L11.55 8.39998L13.6667 10.5166L11.7 12.5L14.05 14.85L16.0333 12.8667L18.45 15.2833L15.3 18.45ZM28.4333 31.6L21.55 24.7167L24.7167 21.55L27.1333 23.9667L25.15 25.95L27.5 28.3L29.4833 26.3167L31.6 28.4333L28.4333 31.6ZM34.5167 11.7333C34.6712 11.5791 34.7938 11.396 34.8774 11.1944C34.961 10.9927 35.0041 10.7766 35.0041 10.5583C35.0041 10.34 34.961 10.1239 34.8774 9.92228C34.7938 9.72065 34.6712 9.53751 34.5167 9.38332L30.6167 5.48332C29.8333 4.69998 28.75 4.99998 28.2667 5.48332L25.2167 8.53332L31.4667 14.7833L34.5167 11.7333Z" fill="#A1C5E9"/>
</svg>
